<svg xmlns="http://www.w3.org/2000/svg" viewBox="4.0 18.6 92.0 62.8" width="92" height="63" xmlns:c2pa="http://c2pa.org/manifest"><metadata><c2pa:manifest>AAAWgmp1bWIAAAAeanVtZGMycGEAEQAQgAAAqgA4m3EDYzJwYQAAABZcanVtYgAAAEdqdW1kYzJtYQARABCAAACqADibcQN1cm46YzJwYTozNmVhNGVlMC1lNzM0LTRmYmUtOTJiYi0zNmQwMTE3ZTA1N2QAAAADl2p1bWIAAAApanVtZGMyYXMAEQAQgAAAqgA4m3EDYzJwYS5hc3NlcnRpb25zAAAAALxqdW1iAAAARGp1bWRjYm9yABEAEIAAAKoAOJtxE2MycGEuaW5ncmVkaWVudC52MwAAAAAYYzJzaIGEGpxMEDxED9m3SSJl234AAABwY2JvcqNpZGM6Zm9ybWF0bWltYWdlL3N2Zyt4bWxqaW5zdGFuY2VJRHgseG1wOmlpZDo1ZWFiZjIxNS1iZjAyLTRmMTMtOTM1ZC00YThkZDM3M2JhNzJscmVsYXRpb25zaGlwaHBhcmVudE9mAAAB4mp1bWIAAABBanVtZGNib3IAEQAQgAAAqgA4m3ETYzJwYS5hY3Rpb25zLnYyAAAAABhjMnNoio6f0LpKYQvaLxKMqnb1KAAAAZljYm9yomdhY3Rpb25zgqJmYWN0aW9ua2MycGEub3BlbmVkanBhcmFtZXRlcnOha2luZ3JlZGllbnRzgaJjdXJseC1zZWxmI2p1bWJmPWMycGEuYXNzZXJ0aW9ucy9jMnBhLmluZ3JlZGllbnQudjNkaGFzaFggiKJvtO+bK0ovxgyKvCLDB+nrtlS0QcIMCdvuVS0KcO+kZmFjdGlvbngdY29tLmFudGhyb3BpYy5jbGF1ZGUucHJvdmlkZWRqcGFyYW1ldGVyc6F4H2NvbS5hbnRocm9waWMub3JpZ2luLWNvbmZpZGVuY2VndW5rbm93bmtkZXNjcmlwdGlvbnhmQ2xhdWRlIHByb3ZpZGVkIHRoaXMgZmlsZSBhdCB0aGUgcmVxdWVzdCBvZiBhIHVzZXIgYW5kIG1heSBoYXZlIGNyZWF0ZWQgb3IgbW9kaWZpZWQgdGhlIGZpbGUgY29udGVudHMubXNvZnR3YXJlQWdlbnShZG5hbWVmQ2xhdWRlcmFsbEFjdGlvbnNJbmNsdWRlZPUAAADIanVtYgAAAEBqdW1kY2JvcgARABCAAACqADibcRNjMnBhLmhhc2guZGF0YQAAAAAYYzJzaOfrZtk+GC8u1uAn7oIse9MAAACAY2JvcqVjYWxnZnNoYTI1NmNwYWRNAAAAAAAAAAAAAAAAAGRoYXNoWCCJgkLTKBW466RFZaXoQQPleoaviYiYciRsw/fz/3B80GRuYW1lbmp1bWJmIG1hbmlmZXN0amV4Y2x1c2lvbnOBomVzdGFydBibZmxlbmd0aBkeBAAAAj5qdW1iAAAAJ2p1bWRjMmNsABEAEIAAAKoAOJtxA2MycGEuY2xhaW0udjIAAAACD2Nib3KlY2FsZ2ZzaGEyNTZpc2lnbmF0dXJleE1zZWxmI2p1bWJmPS9jMnBhL3VybjpjMnBhOjM2ZWE0ZWUwLWU3MzQtNGZiZS05MmJiLTM2ZDAxMTdlMDU3ZC9jMnBhLnNpZ25hdHVyZWppbnN0YW5jZUlEeCx4bXA6aWlkOjliNjIyN2JkLWVlMWUtNDc1YS04NmQzLWVjMWQ2ZjM3YzE0M3JjcmVhdGVkX2Fzc2VydGlvbnODomN1cmx4LXNlbGYjanVtYmY9YzJwYS5hc3NlcnRpb25zL2MycGEuaW5ncmVkaWVudC52M2RoYXNoWCCIom+075srSi/GDIq8IsMH6eu2VLRBwgwJ2+5VLQpw76JjdXJseCpzZWxmI2p1bWJmPWMycGEuYXNzZXJ0aW9ucy9jMnBhLmFjdGlvbnMudjJkaGFzaFgg/7hw04FkjzSArGofB53QWPydwpBtAxlUFGrL0ChNFCeiY3VybHgpc2VsZiNqdW1iZj1jMnBhLmFzc2VydGlvbnMvYzJwYS5oYXNoLmRhdGFkaGFzaFgg1K2TzwVp9wncM9LscbrsC2zvfEOGtO63Pw9Z7PyuYjd0Y2xhaW1fZ2VuZXJhdG9yX2luZm+jZG5hbWVvQW50aHJvcGljIEZpbGVzZ3ZlcnNpb25lMS4wLjBrc3BlY1ZlcnNpb25lMi40LjAAABA4anVtYgAAAChqdW1kYzJjcwARABCAAACqADibcQNjMnBhLnNpZ25hdHVyZQAAABAIY2JvctKEWQISogEmGCFZAgowggIGMIIBjaADAgECAhRA5aAK7sI50L64g/oGQgU9Z1UTADAKBggqhkjOPQQDAzBJMRcwFQYDVQQKEw5BbnRocm9waWMsIFBCQzEuMCwGA1UEAxMlQW50aHJvcGljIENvbnRlbnQgQ3JlZGVudGlhbHMgUm9vdCBDQTAeFw0yNjA4MDcxODQzNTZaFw0yODA4MDYxOTQzNTZaMEQxFzAVBgNVBAoTDkFudGhyb3BpYywgUEJDMSkwJwYDVQQDEyBBbnRocm9waWMgQ2xhdWRlIENvbnRlbnQgU2lnbmluZzBZMBMGByqGSM49AgEGCCqGSM49AwEHA0IABJh6CmvLUBgFFNU0vUKlOVtE6djd17L5SuwX0LemFisBM3dkd/3cyjxFA3Qo5S46fX0/ihY0VZ7mfb9KF703t5OjWDBWMA4GA1UdDwEB/wQEAwIHgDAVBgNVHSUEDjAMBgorBgEEAYPoXgIBMAwGA1UdEwEB/wQCMAAwHwYDVR0jBBgwFoAUzlHiBIFOZFsj+OPEz5o+nMHXXMIwCgYIKoZIzj0EAwMDZwAwZAIwMXMdFJ4BetLLVY7ORuE9noqbbAZOZn/aArXyTwFAZfKrPzxF2vPoJNf1+UCdg1XGAjBwX1zd9WGqYkqmL5SFqw1QySjr1zJfpJM9+1rdDwSPLMOPOjKuiXjoU/pUUeG9RwmhY3BhZFkNngAAAAAAAAAAAAAAAAAAAAAAAAAAAAAAAAAAAAAAAAAAAAAAAAAAAAAAAAAAAAAAAAAAAAAAAAAAAAAAAAAAAAAAAAAAAAAAAAAAAAAAAAAAAAAAAAAAAAAAAAAAAAAAAAAAAAAAAAAAAAAAAAAAAAAAAAAAAAAAAAAAAAAAAAAAAAAAAAAAAAAAAAAAAAAAAAAAAAAAAAAAAAAAAAAAAAAAAAAAAAAAAAAAAAAAAAAAAAAAAAAAAAAAAAAAAAAAAAAAAAAAAAAAAAAAAAAAAAAAAAAAAAAAAAAAAAAAAAAAAAAAAAAAAAAAAAAAAAAAAAAAAAAAAAAAAAAAAAAAAAAAAAAAAAAAAAAAAAAAAAAAAAAAAAAAAAAAAAAAAAAAAAAAAAAAAAAAAAAAAAAAAAAAAAAAAAAAAAAAAAAAAAAAAAAAAAAAAAAAAAAAAAAAAAAAAAAAAAAAAAAAAAAAAAAAAAAAAAAAAAAAAAAAAAAAAAAAAAAAAAAAAAAAAAAAAAAAAAAAAAAAAAAAAAAAAAAAAAAAAAAAAAAAAAAAAAAAAAAAAAAAAAAAAAAAAAAAAAAAAAAAAAAAAAAAAAAAAAAAAAAAAAAAAAAAAAAAAAAAAAAAAAAAAAAAAAAAAAAAAAAAAAAAAAAAAAAAAAAAAAAAAAAAAAAAAAAAAAAAAAAAAAAAAAAAAAAAAAAAAAAAAAAAAAAAAAAAAAAAAAAAAAAAAAAAAAAAAAAAAAAAAAAAAAAAAAAAAAAAAAAAAAAAAAAAAAAAAAAAAAAAAAAAAAAAAAAAAAAAAAAAAAAAAAAAAAAAAAAAAAAAAAAAAAAAAAAAAAAAAAAAAAAAAAAAAAAAAAAAAAAAAAAAAAAAAAAAAAAAAAAAAAAAAAAAAAAAAAAAAAAAAAAAAAAAAAAAAAAAAAAAAAAAAAAAAAAAAAAAAAAAAAAAAAAAAAAAAAAAAAAAAAAAAAAAAAAAAAAAAAAAAAAAAAAAAAAAAAAAAAAAAAAAAAAAAAAAAAAAAAAAAAAAAAAAAAAAAAAAAAAAAAAAAAAAAAAAAAAAAAAAAAAAAAAAAAAAAAAAAAAAAAAAAAAAAAAAAAAAAAAAAAAAAAAAAAAAAAAAAAAAAAAAAAAAAAAAAAAAAAAAAAAAAAAAAAAAAAAAAAAAAAAAAAAAAAAAAAAAAAAAAAAAAAAAAAAAAAAAAAAAAAAAAAAAAAAAAAAAAAAAAAAAAAAAAAAAAAAAAAAAAAAAAAAAAAAAAAAAAAAAAAAAAAAAAAAAAAAAAAAAAAAAAAAAAAAAAAAAAAAAAAAAAAAAAAAAAAAAAAAAAAAAAAAAAAAAAAAAAAAAAAAAAAAAAAAAAAAAAAAAAAAAAAAAAAAAAAAAAAAAAAAAAAAAAAAAAAAAAAAAAAAAAAAAAAAAAAAAAAAAAAAAAAAAAAAAAAAAAAAAAAAAAAAAAAAAAAAAAAAAAAAAAAAAAAAAAAAAAAAAAAAAAAAAAAAAAAAAAAAAAAAAAAAAAAAAAAAAAAAAAAAAAAAAAAAAAAAAAAAAAAAAAAAAAAAAAAAAAAAAAAAAAAAAAAAAAAAAAAAAAAAAAAAAAAAAAAAAAAAAAAAAAAAAAAAAAAAAAAAAAAAAAAAAAAAAAAAAAAAAAAAAAAAAAAAAAAAAAAAAAAAAAAAAAAAAAAAAAAAAAAAAAAAAAAAAAAAAAAAAAAAAAAAAAAAAAAAAAAAAAAAAAAAAAAAAAAAAAAAAAAAAAAAAAAAAAAAAAAAAAAAAAAAAAAAAAAAAAAAAAAAAAAAAAAAAAAAAAAAAAAAAAAAAAAAAAAAAAAAAAAAAAAAAAAAAAAAAAAAAAAAAAAAAAAAAAAAAAAAAAAAAAAAAAAAAAAAAAAAAAAAAAAAAAAAAAAAAAAAAAAAAAAAAAAAAAAAAAAAAAAAAAAAAAAAAAAAAAAAAAAAAAAAAAAAAAAAAAAAAAAAAAAAAAAAAAAAAAAAAAAAAAAAAAAAAAAAAAAAAAAAAAAAAAAAAAAAAAAAAAAAAAAAAAAAAAAAAAAAAAAAAAAAAAAAAAAAAAAAAAAAAAAAAAAAAAAAAAAAAAAAAAAAAAAAAAAAAAAAAAAAAAAAAAAAAAAAAAAAAAAAAAAAAAAAAAAAAAAAAAAAAAAAAAAAAAAAAAAAAAAAAAAAAAAAAAAAAAAAAAAAAAAAAAAAAAAAAAAAAAAAAAAAAAAAAAAAAAAAAAAAAAAAAAAAAAAAAAAAAAAAAAAAAAAAAAAAAAAAAAAAAAAAAAAAAAAAAAAAAAAAAAAAAAAAAAAAAAAAAAAAAAAAAAAAAAAAAAAAAAAAAAAAAAAAAAAAAAAAAAAAAAAAAAAAAAAAAAAAAAAAAAAAAAAAAAAAAAAAAAAAAAAAAAAAAAAAAAAAAAAAAAAAAAAAAAAAAAAAAAAAAAAAAAAAAAAAAAAAAAAAAAAAAAAAAAAAAAAAAAAAAAAAAAAAAAAAAAAAAAAAAAAAAAAAAAAAAAAAAAAAAAAAAAAAAAAAAAAAAAAAAAAAAAAAAAAAAAAAAAAAAAAAAAAAAAAAAAAAAAAAAAAAAAAAAAAAAAAAAAAAAAAAAAAAAAAAAAAAAAAAAAAAAAAAAAAAAAAAAAAAAAAAAAAAAAAAAAAAAAAAAAAAAAAAAAAAAAAAAAAAAAAAAAAAAAAAAAAAAAAAAAAAAAAAAAAAAAAAAAAAAAAAAAAAAAAAAAAAAAAAAAAAAAAAAAAAAAAAAAAAAAAAAAAAAAAAAAAAAAAAAAAAAAAAAAAAAAAAAAAAAAAAAAAAAAAAAAAAAAAAAAAAAAAAAAAAAAAAAAAAAAAAAAAAAAAAAAAAAAAAAAAAAAAAAAAAAAAAAAAAAAAAAAAAAAAAAAAAAAAAAAAAAAAAAAAAAAAAAAAAAAAAAAAAAAAAAAAAAAAAAAAAAAAAAAAAAAAAAAAAAAAAAAAAAAAAAAAAAAAAAAAAAAAAAAAAAAAAAAAAAAAAAAAAAAAAAAAAAAAAAAAAAAAAAAAAAAAAAAAAAAAAAAAAAAAAAAAAAAAAAAAAAAAAAAAAAAAAAAAAAAAAAAAAAAAAAAAAAAAAAAAAAAAAAAAAAAAAAAAAAAAAAAAAAAAAAAAAAAAAAAAAAAAAAAAAAAAAAAAAAAAAAAAAAAAAAAAAAAAAAAAAAAAAAAAAAAAAAAAAAAAAAAAAAAAAAAAAAAAAAAAAAAAAAAAAAAAAAAAAAAAAAAAAAAAAAAAAAAAAAAAAAAAAAAAAAAAAAAAAAAAAAAAAAAAAAAAAAAAAAAAAAAAAAAAAAAAAAAAAAAAAAAAAAAAAAAAAAAAAAAAAAAAAAAAAAAAAAAAAAAAAAAAAAAAAAAAAAAAAAAAAAAAAAAAAAAAAAAAAAAAAAAAAAAAAAAAAAAAAAAAAAAAAAAAAAAAAAAAAAAAAAAAAAAAAAAAAAAAAAAAAAAAAAAAAAAAAAAAAAAAAAAAAAAAAAAAAAAAAAAAAAAAAAAAAAAAAAAAAAAAAAAAAAAAAAAAAAAAAAAAAAAAAAAAAAAAAAAAAAAAAAAAAAAAAAAAAAAAAAAAAAAAAAAAAAAAAAAAAAAAAAAAAAAAAAAAAAAAAAAAAAAAAAAAAAAAAAAAAAAAAAAAAAAAAAAAAAAAAAAAAAAAAAAAAAAAAAAAAAAAAAAAAAAAAAAAAAAAAAAAAAAAAAAAAAAAAAAAAAAAAAAAAAAAAAAAAAAAAAAAAAAAAAAAAAAAAAAAAAAAAAAAAAAAAAAAAAAAAAAAAAAAAAAAAAAAAAAAAAAAAAAAAAAAAAAAAAAAAAAAAAAAAAAAAAAAAAAAAAAAAAAAAAAAAAAAAAAAAAAAAAAAAAAAAAAAAAAAAAAAAAAAAAAAAAAAAAAAAAAAAAAAAAAAAAAAAAAAAAAAAAAAAAAAAAAAAAAAAAAAAAAAAAAAAAAAAAAAAAAAAAAAAAAAAAAAAAAAAAAAAAAAAAAAAAAAAAAAAAAAAAAAAAAAAAAAAAAAAAAAAAAAAAAAAAAAAAAAAAAAAAAAAAAAAAAAAAAAAAAAAAAAAAAAAAAAAAAAAAAAAAAAAAAAAAAAAAAAAAAAAAAAAAAAAAAAAAAAAAAAAAAAAAAAAAAAAAAAAAAAAAAAAAAAAAAAAAAAAAAAAAAAAAAAAAAAAAAAAAAAAAAAAAAAAAAAAAAAAAAAAAAAAAAAAAAAAAAAAAAAAAAAAAAAAAAAAAAAAAAAAAAAAAAAAAAAAAAAAAAAAAAAAAAAAAAAAAAAAAAAAAAAAAAAAAAAAAAAAAAAAAAAAAAAAAAAAAAAAAAAAAAAAAAAAAAAAAAAAAAAAAAAAAAAAAAAAAAAAAAAAAAAAAAAAAAAAAAAAAAAAAAAAAAAAAAAAAAAAAAAAAAAAAAAAAAAAAAAAAAAAAAAAAAAAAAAAAAAAAAAAAAAAAAAAAAAAAAAAAAAAAAAAAAAAAAAAAAAAAAAAAAAAAAAAAAAAAAAAAAAAAAAAAAAAAAAAAAAAAAAAAAAAAAAAAAAAAAAAAAAAAAAAAAAAAAAAAAAAAAAAAAAAAAAAAAAAAAAAAAAAAAAAAAAAAAAAAAAAAAAAAAAAAAAAAAAAAAAAAAAAAAAAAAAAAAAAAAAAAAAAAAAAAAAAAAAAAAAAAAPZYQD8TU3oST9guKr5h0raWhEoO+WKfXwNW0/6CowI2t1yWJnWKkDq7BGYcHDOuvO7UYtl6GzjN1lyGRIjF6I7XWOo=</c2pa:manifest></metadata><g transform="translate(0.00 0.00) scale(1.0000)"><path fill="#0E2A33" d="M6.0 50.0 L7.3 48.1 L8.6 46.2 L9.9 44.2 L11.1 42.4 L12.3 40.5 L13.5 38.8 L14.7 37.1 L15.9 35.5 L17.1 34.0 L18.3 32.6 L19.4 31.3 L20.6 30.2 L21.7 29.2 L22.7 28.4 L23.8 27.8 L24.7 27.3 L25.6 26.9 L26.5 26.7 L27.3 26.6 L28.0 26.7 L28.7 26.8 L29.4 27.0 L30.2 27.4 L30.9 27.8 L31.8 28.4 L32.6 29.2 L33.5 30.1 L34.4 31.1 L35.4 32.3 L36.4 33.6 L37.4 35.0 L38.4 36.6 L39.4 38.2 L40.5 40.0 L41.5 41.8 L42.6 43.7 L43.7 45.6 L44.7 47.6 L45.8 49.6 L46.9 51.7 L48.0 53.7 L49.1 55.7 L50.3 57.8 L51.4 59.7 L52.5 61.7 L53.7 63.6 L54.8 65.4 L56.0 67.1 L57.2 68.8 L58.4 70.4 L59.6 71.8 L60.8 73.2 L62.1 74.4 L63.4 75.5 L64.8 76.5 L66.1 77.3 L67.6 77.9 L69.0 78.4 L70.5 78.6 L72.0 78.7 L73.5 78.5 L74.9 78.1 L76.2 77.5 L77.5 76.7 L78.8 75.8 L79.9 74.8 L81.1 73.6 L82.2 72.3 L83.2 70.9 L84.3 69.4 L85.3 67.8 L86.3 66.0 L87.3 64.2 L88.3 62.4 L89.3 60.4 L90.3 58.4 L91.3 56.4 L92.2 54.3 L93.1 52.2 L94.0 50.0 L94.0 50.0 L92.7 51.9 L91.4 53.8 L90.1 55.8 L88.9 57.6 L87.7 59.5 L86.5 61.2 L85.3 62.9 L84.1 64.5 L82.9 66.0 L81.7 67.4 L80.6 68.7 L79.4 69.8 L78.3 70.8 L77.3 71.6 L76.2 72.2 L75.3 72.7 L74.4 73.1 L73.5 73.3 L72.7 73.4 L72.0 73.3 L71.3 73.2 L70.6 73.0 L69.8 72.6 L69.1 72.2 L68.2 71.6 L67.4 70.8 L66.5 69.9 L65.6 68.9 L64.6 67.7 L63.6 66.4 L62.6 65.0 L61.6 63.4 L60.6 61.8 L59.5 60.0 L58.5 58.2 L57.4 56.3 L56.3 54.4 L55.3 52.4 L54.2 50.4 L53.1 48.3 L52.0 46.3 L50.9 44.3 L49.7 42.2 L48.6 40.3 L47.5 38.3 L46.3 36.4 L45.2 34.6 L44.0 32.9 L42.8 31.2 L41.6 29.6 L40.4 28.2 L39.2 26.8 L37.9 25.6 L36.6 24.5 L35.2 23.5 L33.9 22.7 L32.4 22.1 L31.0 21.6 L29.5 21.4 L28.0 21.3 L26.5 21.5 L25.1 21.9 L23.8 22.5 L22.5 23.3 L21.2 24.2 L20.1 25.2 L18.9 26.4 L17.8 27.7 L16.8 29.1 L15.7 30.6 L14.7 32.2 L13.7 34.0 L12.7 35.8 L11.7 37.6 L10.7 39.6 L9.7 41.6 L8.7 43.6 L7.8 45.7 L6.9 47.8 L6.0 50.0 Z"/><path fill="#157A7F" d="M6.0 27.5 L6.9 28.8 L7.9 30.1 L8.8 31.5 L9.8 33.1 L10.7 34.7 L11.7 36.4 L12.6 38.2 L13.6 40.1 L14.6 42.1 L15.6 44.1 L16.6 46.1 L17.6 48.2 L18.6 50.3 L19.6 52.3 L20.6 54.4 L21.6 56.5 L22.6 58.6 L23.7 60.6 L24.7 62.5 L25.7 64.4 L26.8 66.2 L27.9 68.0 L29.0 69.6 L30.1 71.2 L31.2 72.6 L32.4 74.0 L33.6 75.2 L34.9 76.3 L36.2 77.3 L37.6 78.1 L39.0 78.7 L40.6 79.2 L42.1 79.4 L43.7 79.4 L45.3 79.1 L46.8 78.7 L48.3 78.0 L49.7 77.2 L51.1 76.2 L52.4 75.1 L53.6 73.8 L54.9 72.5 L56.0 71.0 L57.2 69.4 L58.4 67.8 L59.5 66.0 L60.6 64.2 L61.7 62.3 L62.8 60.3 L63.9 58.3 L64.9 56.3 L66.0 54.2 L67.1 52.2 L68.1 50.1 L69.2 48.0 L70.2 46.0 L71.2 44.0 L72.2 42.1 L73.2 40.2 L74.3 38.4 L75.2 36.7 L76.2 35.0 L77.2 33.5 L78.2 32.1 L79.1 30.8 L80.1 29.7 L81.0 28.6 L81.9 27.7 L82.8 27.0 L83.7 26.3 L84.6 25.9 L85.5 25.5 L86.4 25.2 L87.3 25.1 L88.3 25.1 L89.3 25.3 L90.4 25.6 L91.5 26.1 L92.7 26.7 L94.0 27.5 L94.0 27.5 L93.1 26.3 L92.1 25.3 L91.0 24.5 L89.9 23.8 L88.7 23.3 L87.5 22.9 L86.2 22.8 L84.9 22.8 L83.6 23.0 L82.3 23.4 L81.0 24.0 L79.7 24.8 L78.4 25.7 L77.1 26.7 L75.9 27.9 L74.6 29.2 L73.4 30.7 L72.2 32.2 L71.0 33.9 L69.7 35.6 L68.6 37.4 L67.4 39.3 L66.2 41.2 L65.0 43.2 L63.8 45.2 L62.7 47.2 L61.5 49.2 L60.4 51.2 L59.3 53.2 L58.1 55.1 L57.0 57.0 L55.9 58.9 L54.8 60.6 L53.7 62.3 L52.6 63.9 L51.6 65.4 L50.6 66.7 L49.5 67.9 L48.6 69.0 L47.6 70.0 L46.7 70.7 L45.9 71.4 L45.1 71.9 L44.4 72.2 L43.7 72.4 L43.1 72.6 L42.5 72.6 L41.8 72.6 L41.2 72.4 L40.4 72.2 L39.6 71.8 L38.7 71.2 L37.8 70.5 L36.8 69.6 L35.8 68.6 L34.7 67.5 L33.6 66.2 L32.5 64.8 L31.4 63.2 L30.3 61.6 L29.1 59.9 L27.9 58.1 L26.8 56.2 L25.6 54.3 L24.4 52.3 L23.2 50.4 L22.0 48.4 L20.8 46.4 L19.6 44.4 L18.4 42.5 L17.2 40.6 L16.0 38.7 L14.8 36.9 L13.5 35.2 L12.3 33.6 L11.0 32.1 L9.8 30.8 L8.5 29.5 L7.3 28.4 L6.0 27.5 Z"/><path fill="#E39B2F" d="M6.0 72.5 L6.9 73.7 L7.9 74.7 L9.0 75.5 L10.1 76.2 L11.3 76.7 L12.5 77.1 L13.8 77.2 L15.1 77.2 L16.4 77.0 L17.7 76.6 L19.0 76.0 L20.3 75.2 L21.6 74.3 L22.9 73.3 L24.1 72.1 L25.4 70.8 L26.6 69.3 L27.8 67.8 L29.0 66.1 L30.3 64.4 L31.4 62.6 L32.6 60.7 L33.8 58.8 L35.0 56.8 L36.2 54.8 L37.3 52.8 L38.5 50.8 L39.6 48.8 L40.7 46.8 L41.9 44.9 L43.0 43.0 L44.1 41.1 L45.2 39.4 L46.3 37.7 L47.4 36.1 L48.4 34.6 L49.4 33.3 L50.5 32.1 L51.4 31.0 L52.4 30.0 L53.3 29.3 L54.1 28.6 L54.9 28.1 L55.6 27.8 L56.3 27.6 L56.9 27.4 L57.5 27.4 L58.2 27.4 L58.8 27.6 L59.6 27.8 L60.4 28.2 L61.3 28.8 L62.2 29.5 L63.2 30.4 L64.2 31.4 L65.3 32.5 L66.4 33.8 L67.5 35.2 L68.6 36.8 L69.7 38.4 L70.9 40.1 L72.1 41.9 L73.2 43.8 L74.4 45.7 L75.6 47.7 L76.8 49.6 L78.0 51.6 L79.2 53.6 L80.4 55.6 L81.6 57.5 L82.8 59.4 L84.0 61.3 L85.2 63.1 L86.5 64.8 L87.7 66.4 L89.0 67.9 L90.2 69.2 L91.5 70.5 L92.7 71.6 L94.0 72.5 L94.0 72.5 L93.1 71.2 L92.1 69.9 L91.2 68.5 L90.2 66.9 L89.3 65.3 L88.3 63.6 L87.4 61.8 L86.4 59.9 L85.4 57.9 L84.4 55.9 L83.4 53.9 L82.4 51.8 L81.4 49.7 L80.4 47.7 L79.4 45.6 L78.4 43.5 L77.4 41.4 L76.3 39.4 L75.3 37.5 L74.3 35.6 L73.2 33.8 L72.1 32.0 L71.0 30.4 L69.9 28.8 L68.8 27.4 L67.6 26.0 L66.4 24.8 L65.1 23.7 L63.8 22.7 L62.4 21.9 L61.0 21.3 L59.4 20.8 L57.9 20.6 L56.3 20.6 L54.7 20.9 L53.2 21.3 L51.7 22.0 L50.3 22.8 L48.9 23.8 L47.6 24.9 L46.4 26.2 L45.1 27.5 L44.0 29.0 L42.8 30.6 L41.6 32.2 L40.5 34.0 L39.4 35.8 L38.3 37.7 L37.2 39.7 L36.1 41.7 L35.1 43.7 L34.0 45.8 L32.9 47.8 L31.9 49.9 L30.8 52.0 L29.8 54.0 L28.8 56.0 L27.8 57.9 L26.8 59.8 L25.7 61.6 L24.8 63.3 L23.8 65.0 L22.8 66.5 L21.8 67.9 L20.9 69.2 L19.9 70.3 L19.0 71.4 L18.1 72.3 L17.2 73.0 L16.3 73.7 L15.4 74.1 L14.5 74.5 L13.6 74.8 L12.7 74.9 L11.7 74.9 L10.7 74.7 L9.6 74.4 L8.5 73.9 L7.3 73.3 L6.0 72.5 Z"/></g></svg>